<?xml version="1.0" encoding="UTF-8" standalone="no"?>
<!-- Created with Inkscape (http://www.inkscape.org/) -->

<svg
   xmlns:dc="http://purl.org/dc/elements/1.1/"
   xmlns:cc="http://creativecommons.org/ns#"
   xmlns:rdf="http://www.w3.org/1999/02/22-rdf-syntax-ns#"
   xmlns:svg="http://www.w3.org/2000/svg"
   xmlns="http://www.w3.org/2000/svg"
   xmlns:xlink="http://www.w3.org/1999/xlink"
   xmlns:sodipodi="http://sodipodi.sourceforge.net/DTD/sodipodi-0.dtd"
   xmlns:inkscape="http://www.inkscape.org/namespaces/inkscape"
   width="211.05403mm"
   height="161.44324mm"
   viewBox="0 0 211.05403 161.44324"
   version="1.1"
   id="svg8"
   inkscape:version="0.92.4 (5da689c313, 2019-01-14)"
   sodipodi:docname="phydynRLogo.svg"
   inkscape:export-filename="/home/marielle/downloads/phydynRLogo.svg.png"
   inkscape:export-xdpi="100"
   inkscape:export-ydpi="100">
  <defs
     id="defs2">
    <linearGradient
       spreadMethod="pad"
       gradientUnits="userSpaceOnUse"
       y2="593.78699"
       y1="3.6658268"
       x2="590.86261"
       x1="0.7414425"
       id="gradientFill-1"
       gradientTransform="matrix(0.32330556,0,0,0.21652686,-504.23609,-98.400276)">
      <stop
         id="stop1584"
         stop-opacity="1"
         stop-color="rgb(203,206,208)"
         offset="0"
         style="stop-color:#6ff8a9;stop-opacity:1" />
      <stop
         id="stop1586"
         stop-opacity="1"
         stop-color="rgb(132,131,139)"
         offset="1"
         style="stop-color:#000000;stop-opacity:1" />
    </linearGradient>
    <linearGradient
       spreadMethod="pad"
       gradientUnits="userSpaceOnUse"
       y2="553.44208"
       y1="151.4006"
       x2="703.0675"
       x1="301.02603"
       id="gradientFill-2"
       gradientTransform="matrix(0.26192363,0,0,0.26727004,-504.23609,-98.400276)">
      <stop
         id="stop1589"
         stop-opacity="1"
         stop-color="rgb(39,109,195)"
         offset="0" />
      <stop
         id="stop1591"
         stop-opacity="1"
         stop-color="rgb(22,92,170)"
         offset="1" />
    </linearGradient>
    <linearGradient
       gradientTransform="matrix(0.32330556,0,0,0.21652686,10.1388,13.8331)"
       id="gradientFill-1-7"
       x1="0.7414425"
       x2="590.86261"
       y1="3.6658268"
       y2="593.78699"
       gradientUnits="userSpaceOnUse"
       spreadMethod="pad">
      <stop
         offset="0"
         stop-color="rgb(203,206,208)"
         stop-opacity="1"
         id="stop947" />
      <stop
         offset="1"
         stop-color="rgb(132,131,139)"
         stop-opacity="1"
         id="stop949" />
    </linearGradient>
    <linearGradient
       gradientTransform="matrix(0.08219441,0,0,0.08387217,129.47617,103.86645)"
       id="gradientFill-2-0"
       x1="301.02603"
       x2="703.0675"
       y1="151.4006"
       y2="553.44208"
       gradientUnits="userSpaceOnUse"
       spreadMethod="pad">
      <stop
         offset="0"
         stop-color="rgb(39,109,195)"
         stop-opacity="1"
         id="stop952" />
      <stop
         offset="1"
         stop-color="rgb(22,92,170)"
         stop-opacity="1"
         id="stop954" />
    </linearGradient>
    <linearGradient
       inkscape:collect="always"
       xlink:href="#gradientFill-2"
       id="linearGradient1554"
       gradientUnits="userSpaceOnUse"
       gradientTransform="translate(499.61744,101.50009)"
       x1="-448.55698"
       y1="41.236309"
       x2="-345.76913"
       y2="41.236309" />
    <linearGradient
       inkscape:collect="always"
       xlink:href="#gradientFill-2"
       id="linearGradient1556"
       gradientUnits="userSpaceOnUse"
       gradientTransform="translate(496.29841,99.693392)"
       x1="-455.29218"
       y1="41.455498"
       x2="-352.50433"
       y2="41.455498" />
    <radialGradient
       inkscape:collect="always"
       xlink:href="#gradientFill-1"
       id="radialGradient1560"
       gradientUnits="userSpaceOnUse"
       gradientTransform="matrix(-6.1796561,-0.1572186,0.28521196,-7.6569687,2478.1789,947.96244)"
       cx="331.43967"
       cy="90.538094"
       fx="331.43967"
       fy="90.538094"
       r="39.974281" />
  </defs>
  <sodipodi:namedview
     id="base"
     pagecolor="#ffffff"
     bordercolor="#666666"
     borderopacity="1.0"
     inkscape:pageopacity="0.0"
     inkscape:pageshadow="2"
     inkscape:zoom="1"
     inkscape:cx="286.78738"
     inkscape:cy="274.80135"
     inkscape:document-units="mm"
     inkscape:current-layer="layer1"
     showgrid="true"
     inkscape:window-width="1920"
     inkscape:window-height="1016"
     inkscape:window-x="0"
     inkscape:window-y="27"
     inkscape:window-maximized="1"
     showguides="true"
     fit-margin-top="10"
     fit-margin-left="10"
     fit-margin-right="10"
     fit-margin-bottom="10" />
  <metadata
     id="metadata5">
    <rdf:RDF>
      <cc:Work
         rdf:about="">
        <dc:format>image/svg+xml</dc:format>
        <dc:type
           rdf:resource="http://purl.org/dc/dcmitype/StillImage" />
        <dc:title />
      </cc:Work>
    </rdf:RDF>
  </metadata>
  <g
     inkscape:label="Layer 1"
     inkscape:groupmode="layer"
     id="layer1"
     transform="translate(-0.24621834,-4.4945584)">
    <path
       id="path1548"
       d="m 105.77324,142.40393 c -52.6849,0 -95.39473,-28.60384 -95.39473,-63.888407 0,-35.284833 42.70983,-63.888673 95.39473,-63.888673 52.68515,0 95.39472,28.60384 95.39472,63.888673 0,35.284567 -42.70957,63.888407 -95.39472,63.888407 z"
       style="fill:#f2f2f2;fill-opacity:1;fill-rule:evenodd;stroke:#ffffff;stroke-width:0.26458332;stroke-opacity:1"
       inkscape:connector-curvature="0"
       sodipodi:nodetypes="sssss" />
    <path
       inkscape:connector-curvature="0"
       style="fill:url(#gradientFill-1-7);fill-rule:evenodd;stroke-width:0.26458332"
       d="m 105.77324,142.40393 c -52.6849,0 -95.39473,-28.60384 -95.39473,-63.888407 0,-35.284833 42.70983,-63.888673 95.39473,-63.888673 52.68515,0 95.39472,28.60384 95.39472,63.888673 0,35.284567 -42.70957,63.888407 -95.39472,63.888407 z M 120.37506,39.605104 c -40.04522,0 -72.50827,19.554825 -72.50827,43.676888 0,24.122058 32.46305,43.676888 72.50827,43.676888 40.04495,0 69.59759,-13.36913 69.59759,-43.676888 0,-30.298232 -29.55264,-43.676888 -69.59759,-43.676888 z"
       id="path959" />
    <path
       inkscape:connector-curvature="0"
       style="fill:url(#gradientFill-2-0);fill-rule:evenodd;stroke-width:0.08302904"
       d="m 175.14214,135.16851 c 0,0 1.81185,0.54675 2.86451,1.07939 0.36524,0.18481 0.99718,0.55363 1.45301,1.03786 0.44653,0.47426 0.66422,0.95484 0.66422,0.95484 l 7.1405,12.03921 -11.54103,0.005 -5.39689,-10.13469 c 0,0 -1.10512,-1.89881 -1.78513,-2.44936 -0.56725,-0.45924 -0.80911,-0.62271 -1.36998,-0.62271 -0.3904,0 -2.74212,0 -2.74212,0 l 0.005,13.19944 -10.21256,0.005 v -33.71768 h 20.50813 c 0,0 9.34076,0.16847 9.34076,9.05537 0,8.88686 -8.92562,9.54833 -8.92562,9.54833 z m -4.44205,-11.28996 -6.18259,-0.004 -0.005,5.73317 6.18566,-0.004 c 0,0 2.8645,-0.009 2.8645,-2.91639 0,-2.96598 -2.8645,-2.8108 -2.8645,-2.8108 z"
       id="path961" />
    <text
       id="text1552"
       y="150.52194"
       x="48.290947"
       style="font-style:normal;font-variant:normal;font-weight:normal;font-stretch:normal;font-size:14.11111069px;line-height:1.25;font-family:Arial;-inkscape-font-specification:Arial;letter-spacing:0px;word-spacing:0px;fill:url(#linearGradient1554);fill-opacity:1;stroke:none;stroke-width:3;stroke-miterlimit:4;stroke-dasharray:none"
       xml:space="preserve"><tspan
         style="font-style:normal;font-variant:normal;font-weight:bold;font-stretch:normal;font-size:28.22222137px;font-family:'Courier 10 Pitch';-inkscape-font-specification:'Courier 10 Pitch';fill:url(#linearGradient1554);fill-opacity:1;stroke:none;stroke-width:3;stroke-miterlimit:4;stroke-dasharray:none;stroke-opacity:1"
         y="150.52194"
         x="48.290947"
         id="tspan1550"
         sodipodi:role="line">phydyn</tspan></text>
    <path
       style="color:#000000;font-style:normal;font-variant:normal;font-weight:normal;font-stretch:normal;font-size:medium;line-height:normal;font-family:sans-serif;font-variant-ligatures:normal;font-variant-position:normal;font-variant-caps:normal;font-variant-numeric:normal;font-variant-alternates:normal;font-feature-settings:normal;text-indent:0;text-align:start;text-decoration:none;text-decoration-line:none;text-decoration-style:solid;text-decoration-color:#000000;letter-spacing:normal;word-spacing:normal;text-transform:none;writing-mode:lr-tb;direction:ltr;text-orientation:mixed;dominant-baseline:auto;baseline-shift:baseline;text-anchor:start;white-space:normal;shape-padding:0;clip-rule:nonzero;display:inline;overflow:visible;visibility:visible;opacity:1;isolation:auto;mix-blend-mode:normal;color-interpolation:sRGB;color-interpolation-filters:linearRGB;solid-color:#000000;solid-opacity:1;vector-effect:none;fill:url(#radialGradient1560);fill-opacity:1;fill-rule:nonzero;stroke:none;stroke-width:19.24560165;stroke-linecap:butt;stroke-linejoin:bevel;stroke-miterlimit:4;stroke-dasharray:none;stroke-dashoffset:0;stroke-opacity:1;color-rendering:auto;image-rendering:auto;shape-rendering:auto;text-rendering:auto;enable-background:accumulate"
       d="m 467.68945,140.90625 -17.70898,0.17187 -75.69922,98.08008 -90.23047,-9.14258 -16.1875,-43.83984 -16.45508,10.50195 10.48828,32.57227 -47.5332,0.0684 -9.9668,17.49609 70.66407,-0.0879 75.23242,7.62696 -58.32031,32.63281 -73.31446,-17.61914 -4.68945,18.59765 65.03125,13.89258 -14.67188,26.17774 19.20704,7.35742 18.42187,-32.86524 83.59375,-46.77148 -0.85351,-1.04297 3.84375,-1.49414 70.59375,-91.4668 33.20117,40.85547 -24.90039,53.63672 -73.83008,73.95703 -58.78906,-1.83008 -13.31641,-18.1914 -16.5,15.5 14.86523,19.125 -1.99218,38.58203 -73.7793,4.6543 21.80469,17.42968 55.01758,-4.73828 22.04882,38.66406 23.91797,4.08204 -28.10742,-53.41016 1.87305,-43.90625 52.17773,1.52344 48.04102,54.54492 13.29492,-14.08789 -42.40625,-48.62891 63.35742,-63.45703 54.8086,79.1582 -87.88282,78.68164 15.54883,11.87891 89.125,-79.80078 67.1543,11.02148 -8.87305,36.08789 20.75,3.48243 9.33008,-37.96289 51.05273,-1.69532 11.18555,-17.48242 -70.10938,1.92188 -77.44531,-12.71289 -61.38476,-88.6543 19.99218,-43.06641 86.07227,68.04492 -1.91602,44.79102 21.15625,0.61914 1.90821,-44.6875 73.58594,-56.60352 -11.20118,-17.67578 -72.16015,58.3418 -93.47071,-73.9043 z"
       transform="matrix(0.26458333,0,0,0.26458333,0.24621834,4.4945584)"
       id="path1558"
       inkscape:connector-curvature="0"
       sodipodi:nodetypes="ccccccccccccccccccccccccccccccccccccccccccccccccccccccccccccccccc" />
  </g>
</svg>
